<svg width="97" height="56" viewBox="0 0 97 56" fill="none" xmlns="http://www.w3.org/2000/svg">
<path d="M87.0006 18.2562H84.2791V10.7723C84.2791 6.35 80.6506 2.72139 76.2283 2.72139H20.7792C16.3568 2.72139 12.7283 6.35 12.7283 10.7723V18.0294H10.0068V10.7723C10.0068 4.87589 14.8827 0 20.7792 0H76.3416C82.2381 0 87.114 4.87589 87.114 10.7723V18.2562H87.0006Z" fill="#FCF0F2"/>
<path d="M77.7057 55.3339H59.3361L51.3986 45.9223H45.8423L37.7914 55.3339H19.5352C14.3191 55.3339 10.1235 51.1384 10.1235 45.9223V17.3473C10.1235 12.1312 14.3191 7.9357 19.5352 7.9357H77.8191C83.0351 7.9357 87.2307 12.1312 87.2307 17.3473V45.9223C87.0039 51.1384 82.8084 55.3339 77.7057 55.3339ZM60.5833 52.7259H77.7057C81.3343 52.7259 84.3958 49.7776 84.3958 46.0357V17.4607C84.3958 13.8321 81.4477 10.7705 77.7057 10.7705H19.4218C15.7932 10.7705 12.7316 13.7187 12.7316 17.4607V46.0357C12.7316 49.6642 15.6798 52.7259 19.4218 52.7259H36.4307L44.4816 43.3142H52.5325L60.5833 52.7259Z" fill="#FCF0F2"/>
<path d="M30.308 40.4824C25.092 40.4824 20.8964 36.2869 20.8964 31.0709C20.8964 25.8548 25.092 21.6593 30.308 21.6593C35.5241 21.6593 39.7196 25.8548 39.7196 31.0709C39.833 36.2869 35.5241 40.4824 30.308 40.4824ZM30.308 24.3807C26.5661 24.3807 23.5045 27.4423 23.5045 31.1843C23.5045 34.9263 26.5661 37.9879 30.308 37.9879C34.05 37.9879 37.1116 34.9263 37.1116 31.1843C37.1116 27.3289 34.05 24.3807 30.308 24.3807Z" fill="#FCF0F2"/>
<path d="M66.8191 40.4824C61.603 40.4824 57.4075 36.2869 57.4075 31.0709C57.4075 25.8548 61.603 21.6593 66.8191 21.6593C72.0351 21.6593 76.2307 25.8548 76.2307 31.0709C76.2307 36.2869 72.0351 40.4824 66.8191 40.4824ZM66.8191 24.3807C63.0771 24.3807 60.0155 27.4423 60.0155 31.1843C60.0155 34.9263 63.0771 37.9879 66.8191 37.9879C70.561 37.9879 73.6226 34.9263 73.6226 31.1843C73.5092 27.3289 70.561 24.3807 66.8191 24.3807Z" fill="#FCF0F2"/>
<path d="M10.1224 44.5637H6.26706C3.20545 44.5637 0.824219 42.0691 0.824219 39.1209V25.7404C0.824219 22.6788 3.31885 20.2976 6.26706 20.2976H10.1224V23.0191H6.26706C4.67956 23.0191 3.43224 24.2664 3.43224 25.8539V39.2342C3.43224 40.8217 4.67956 42.069 6.26706 42.069H10.1224V44.5637Z" fill="#FCF0F2"/>
<path d="M90.9726 44.5631H87.1172V41.8416H90.9726C92.5601 41.8416 93.8074 40.5943 93.8074 39.0068V25.6264C93.8074 24.0389 92.5601 22.7916 90.9726 22.7916H87.1172V20.0702H90.9726C94.0342 20.0702 96.4154 22.5649 96.4154 25.5131V38.8934C96.5288 42.0684 94.0342 44.5631 90.9726 44.5631Z" fill="#FCF0F2"/>
</svg>
